<?xml version="1.0" encoding="utf-8"?>
<!-- Generator: Adobe Illustrator 22.0.1, SVG Export Plug-In . SVG Version: 6.00 Build 0)  -->
<svg version="1.1" id="Layer_1" xmlns="http://www.w3.org/2000/svg" xmlns:xlink="http://www.w3.org/1999/xlink" x="0px" y="0px"
	 width="180px" height="180px" viewBox="0 0 180 180" style="enable-background:new 0 0 180 180;" xml:space="preserve">
<style type="text/css">
	.st0{fill:#F5F8FF;}
	.st1{fill:#CCCCCC;}
	.st2{fill:#C1C1C1;}
	.st3{fill:#353537;}
	.st4{fill:#262628;}
	.st5{fill:#555555;}
	.st6{opacity:0.1;}
	.st7{opacity:0.2;}
	.st8{fill:#FFBD1A;}
	.st9{fill:#DB9D14;}
	.st10{fill:#001CEA;}
	.st11{fill:#FFFFFF;}
	.st12{fill:#474746;}
	.st13{fill:#D4F3FE;}
	.st14{fill:#D1ECC2;}
</style>
<g>
	<g>
		<g>
			<path class="st13" d="M170.6,91.9c0,44.6-36.2,80.8-80.8,80.8C45.2,172.6,9,136.5,9,91.9c0-4,0.3-7.8,0.8-11.6
				C12.2,64.4,19,50.1,29,38.7c14.8-16.9,36.5-27.6,60.8-27.6c17.6,0,33.9,5.6,47.2,15.2l0.8,0.6c1.4,1,2.7,2,4,3.1
				c6.5,5.4,12.1,11.9,16.6,19c0.2,0.3,0.4,0.6,0.6,0.9c0.6,0.9,1.1,1.8,1.6,2.8C167,64.3,170.6,77.7,170.6,91.9z"/>
		</g>
	</g>
	<g>
		<g>
			<path class="st14" d="M160.5,52.7c-2.8,0.4-5.4,1.4-6.6,2.9c-1.5,2-1.2,2.2-1.4,6.1c-0.2,3.9-0.2,4.9-2.8,8.9
				c-2.6,4-4.8,3.2-5.5,8.8c-0.8,5.6-1.8,3.9-3.5,8.6c-1.7,4.8-5.4,6.4-6.6,7.7c-1.2,1.3,0.5,2.4-0.9,6c-1.4,3.6-3.8,8.9-7.3,2.8
				c-3.5-6.1-3-9.9-5.7-10.6c-2.7-0.7-3.8,4.8-4.7,5.7c-0.9,1,1.3,5.1-0.8,5.9c-2.1,0.8-1.9-0.3-4.3-6.2s1.3-6.3-5.5-8.1
				s-7.6-4-7.2-2.9c0.4,1.1-3.3-5.4-2.5-1c0.9,4.3,2,3,4.1,5.1s2.3,3.9,0,5.4c-2.3,1.6-4.9,5.4-7.2,5c-2.3-0.4-2.2-2.2-4.3-7.5
				c-2-5.4-2.6-5.6-4.4-7.9c-1.8-2.3-0.7-3.2-2.5-4.8c-1.8-1.7,0.3-1.5-4.5-2c-4.7-0.6-3,1.7-6.3-0.8c-3.4-2.5-5.6-4-6.8-3
				c-1.3,1-1.6,4.2-4.7,3.3s-4.5-6.3-2.5-6.5L55.8,75c0,0,2.6,0.9,4.8-4.8c2.2-5.7-0.3-9.6,5.4-11.1c5.8-1.5,11.3-6.8,10.5-10.7
				c-0.8-4-1.2,2.5-3.6,3.1c-2.4,0.7-6.7-0.2-4.8-4.2c1.9-4,3.2-7.9,6.5-9.6c3.3-1.7,6.6-0.3,9.1,2.1c2.6,2.4,3.3,3.2,7.8-0.2
				c4.5-3.3,5.4-3.3,10.1-5.5c4.7-2.2,4.2,0.1,12.3-5c8.1-5.1,12.1-6.7,14.9-4.9c2.8,1.8,0.5,6.2,9.3,5.6c1.3-0.1,2.4-0.1,3.3-0.1
				l0.2,0.1c6.5,5.4,12.1,11.9,16.6,19c0.2,0.3,0.4,0.6,0.6,0.9C159.4,50.9,160,51.8,160.5,52.7z"/>
		</g>
		<g>
			<path class="st14" d="M51.1,85.1c-0.2,0.1-0.4,0.1-0.7,0.1c-1.2-0.1-5.4,0.1-6.2,4.8c-0.9,5.5-1.2,9.9-1.6,14.4
				c-0.5,4.6,0.8,12.1,3.6,14.8c2.8,2.7,4.6,7.3,8.8,5.1s2.8-6.4,7.3-3.1c4.5,3.3,3.3-1.3,4.7,5.4c1.5,6.6,1.4,0.8,3.7,10.5
				s0.4,13.9,5.5,20.4c5.1,6.6,4.4,8.8,6,9.6c1.7,0.8,7.9,1.6,8.4-8.3c0.5-9.9,3.4-9.7,2.4-19.1c-1-9.4-4.5-6.1-2.8-15.8
				c0.6-3.6,1.2-7,1.6-9.8c0.3-2.1-0.8-4.5-2.3-4.4c-1,0-2.2-0.8-3.4-3.3c-3.6-7.4-4.7-14-9.2-17.2c-4.6-3.2,1.5-5.4-5.5-3.2
				c-7.1,2.1-4.8,5.5-8.2,2.4s-2.1-5.2-5.2-5.2C55.7,83.1,52.2,84.6,51.1,85.1z"/>
		</g>
	</g>
</g>
<g>
	<path class="st14" d="M89.3,77.1c-2.5,2.6-6.8,5.1-4.3,7.3c2.5,2.2,5.1,4-3.4,7.2c-8.5,3.3-9,6.3-15.4,12.9
		c-6,6.3-3.9,8.1-10.3,8.2C58.2,96.9,65,82.6,75,71.1c0.3,0,0.5,0,0.8,0C83.8,71.3,91.8,74.4,89.3,77.1z"/>
</g>
</svg>
