<?xml version="1.0" encoding="utf-8"?>
<!-- Generator: Adobe Illustrator 22.0.1, SVG Export Plug-In . SVG Version: 6.00 Build 0)  -->
<svg version="1.1" id="Layer_1" xmlns="http://www.w3.org/2000/svg" xmlns:xlink="http://www.w3.org/1999/xlink" x="0px" y="0px"
	 width="180px" height="180px" viewBox="0 0 180 180" style="enable-background:new 0 0 180 180;" xml:space="preserve">
<style type="text/css">
	.st0{fill:#F5F8FF;}
	.st1{fill:#CCCCCC;}
	.st2{fill:#C1C1C1;}
	.st3{fill:#353537;}
	.st4{fill:#262628;}
	.st5{fill:#555555;}
	.st6{opacity:0.1;}
	.st7{opacity:0.2;}
	.st8{fill:#FFBD1A;}
	.st9{fill:#DB9D14;}
	.st10{fill:#001CEA;}
	.st11{fill:#FFFFFF;}
	.st12{fill:#474746;}
	.st13{fill:#D4F3FE;}
	.st14{fill:#D1ECC2;}
</style>
<g>
	<g>
		<g>
			<circle class="st0" cx="89.8" cy="91.5" r="81.9"/>
		</g>
		<g>
			<g>
				<g>
					<path class="st10" d="M84.5,113c-1.8,0-3.5-0.7-4.7-2l-16-16.5c-2.5-2.6-2.5-6.8,0.1-9.3c2.6-2.5,6.8-2.5,9.3,0.1l11.1,11.4
						l21.9-24.6c2.4-2.7,6.6-2.9,9.3-0.5c2.7,2.4,2.9,6.6,0.5,9.3l-26.6,29.8c-1.2,1.4-2.9,2.2-4.8,2.2C84.6,113,84.5,113,84.5,113z
						"/>
				</g>
			</g>
		</g>
		<g>
			<path class="st10" d="M122.3,64c-2.7-2.4-6.8-2.2-9.2,0.5l-35.8,40.2c-2.4,2.7,0.9,1.9,3.5,4.3c1.2,1.1,0.5,1,2,1
				c1.8,0,5.6,1.8,6.9,0.3l33.1-37.1C125.2,70.5,125,66.4,122.3,64z"/>
		</g>
	</g>
	<g>
		<path class="st10" d="M84,115c-2.3,0-4.6-1-6.2-2.7l-17-18.1c-3.2-3.4-3-8.8,0.4-12c3.4-3.2,8.8-3,12,0.4l10.6,11.3L111.3,63
			c3.1-3.5,8.5-3.8,12-0.7c3.5,3.1,3.8,8.5,0.7,12l-33.7,37.9c-1.6,1.8-3.8,2.8-6.2,2.8C84.1,115,84,115,84,115z"/>
	</g>
</g>
</svg>
