<?xml version="1.0" encoding="utf-8"?>
<!-- Generator: Adobe Illustrator 22.0.1, SVG Export Plug-In . SVG Version: 6.00 Build 0)  -->
<svg version="1.1" id="Layer_1" xmlns="http://www.w3.org/2000/svg" xmlns:xlink="http://www.w3.org/1999/xlink" x="0px" y="0px"
	 width="180px" height="180px" viewBox="0 0 180 180" style="enable-background:new 0 0 180 180;" xml:space="preserve">
<style type="text/css">
	.st0{fill:#F5F8FF;}
	.st1{fill:#CCCCCC;}
	.st2{fill:#C1C1C1;}
	.st3{fill:#353537;}
	.st4{fill:#262628;}
	.st5{fill:#555555;}
	.st6{opacity:0.1;}
	.st7{opacity:0.2;}
	.st8{fill:#FFBD1A;}
	.st9{fill:#DB9D14;}
	.st10{fill:#001CEA;}
	.st11{fill:#FFFFFF;}
	.st12{fill:#474746;}
	.st13{fill:#D4F3FE;}
	.st14{fill:#D1ECC2;}
</style>
<g>
	<g>
		<circle class="st0" cx="92.3" cy="89.9" r="81.9"/>
	</g>
	<g>
		<path class="st1" d="M150,78.4c-4.8,10.8-32.1,56.1-143.2,38.6C5,113.1,4,108.8,4,104.2c0-14.4,10.3-26.6,23.9-29.4
			C30.6,61.8,42.1,52,55.9,52c5.2,0,10.1,1.4,14.3,3.8c7.1-12.8,20.7-21.4,36.4-21.4c23,0,41.6,18.6,41.6,41.6c0,0.4,0,0.9,0,1.3
			C148.7,77.6,149.4,78,150,78.4z"/>
	</g>
	<g>
		<path class="st2" d="M164.8,104.2c0,16.5-13.5,30-30,30H34c-8.3,0-15.8-3.4-21.2-8.8c-2.4-2.4-4.5-5.3-5.9-8.4
			C117.9,134.5,145.2,89.1,150,78.4c4.1,2.4,7.5,5.8,10.1,9.8C163.1,92.8,164.8,98.3,164.8,104.2z"/>
	</g>
	<g>
		<g>
			<g>
				<path class="st3" d="M150.7,93.8c-8.1,0-14.7,6.6-14.7,14.7v17.2c0,8.1,6.6,14.7,14.7,14.7c8.1,0,14.7-6.6,14.7-14.7v-17.2
					C165.3,100.4,158.8,93.8,150.7,93.8z M164,125c0,7.4-6,13.5-13.5,13.5c-7.4,0-13.5-6-13.5-13.5v-15.7c0-7.4,6-13.5,13.5-13.5
					c7.4,0,13.5,6,13.5,13.5V125z"/>
			</g>
		</g>
		<g>
			<g>
				<path class="st4" d="M150.6,95.8c-7.4,0-13.5,6-13.5,13.5V125c0,7.4,6,13.5,13.5,13.5c7.4,0,13.5-6,13.5-13.5v-15.7
					C164,101.8,158,95.8,150.6,95.8z M161,125.7c0,5.7-4.7,10.4-10.4,10.4c-5.7,0-10.4-4.7-10.4-10.4v-17.2
					c0-5.7,4.7-10.4,10.4-10.4c5.7,0,10.4,4.7,10.4,10.4V125.7z"/>
			</g>
		</g>
		<g>
			<path class="st3" d="M164.1,113.2c0,0,10.5,34.6-30.8,27.2c0-0.1,0-0.1,0-0.2v-23c0-2.2,1.8-4,4-4H164.1z"/>
		</g>
		<g>
			<g>
				<path class="st5" d="M167.6,115.4l-3.6-2.2C165.6,113.2,167,114.1,167.6,115.4z"/>
			</g>
			<g>
				<path class="st5" d="M168.1,117.2v23c0,2.2-1.8,4-4,4h-26.8c-2.1,0-3.9-1.7-4-3.8c41.3,7.4,30.8-27.2,30.8-27.2l3.6,2.2
					C167.9,116,168.1,116.6,168.1,117.2z"/>
			</g>
		</g>
		<g>
			<g>
				<path class="st4" d="M167.6,115.4l-3.6-2.2C165.6,113.2,167,114.1,167.6,115.4z"/>
			</g>
			<g>
				<path class="st4" d="M168.1,117.2v23c0,2.2-1.8,4-4,4h-26.8c-2.1,0-3.9-1.7-4-3.8c41.3,7.4,30.8-27.2,30.8-27.2l3.6,2.2
					C167.9,116,168.1,116.6,168.1,117.2z"/>
			</g>
		</g>
		<g>
			<circle class="st2" cx="151" cy="125" r="4.1"/>
		</g>
		<g>
			<path class="st2" d="M151,134.2L151,134.2c-1.2,0-2.2-1-2.2-2.2v-7c0-1.2,1-2.2,2.2-2.2l0,0c1.2,0,2.2,1,2.2,2.2v7
				C153.1,133.2,152.2,134.2,151,134.2z"/>
		</g>
	</g>
	<g>
		<path class="st2" d="M76.7,58c0,0,9.2,4.2,10.4,16.6c0.2,0,7-13.7-6.9-21.9C81.9,50.2,76.8,57.5,76.7,58z"/>
	</g>
</g>
</svg>
