<?xml version="1.0" encoding="utf-8"?>
<!-- Generator: Adobe Illustrator 22.0.1, SVG Export Plug-In . SVG Version: 6.00 Build 0)  -->
<svg version="1.1" id="Layer_1" xmlns="http://www.w3.org/2000/svg" xmlns:xlink="http://www.w3.org/1999/xlink" x="0px" y="0px"
	 width="180px" height="180px" viewBox="0 0 180 180" style="enable-background:new 0 0 180 180;" xml:space="preserve">
<style type="text/css">
	.st0{fill:#F5F8FF;}
	.st1{fill:#CCCCCC;}
	.st2{fill:#C1C1C1;}
	.st3{fill:#353537;}
	.st4{fill:#262628;}
	.st5{fill:#555555;}
	.st6{opacity:0.1;}
	.st7{opacity:0.2;}
	.st8{fill:#FFBD1A;}
	.st9{fill:#DB9D14;}
	.st10{fill:#001CEA;}
	.st11{fill:#FFFFFF;}
	.st12{fill:#474746;}
	.st13{fill:#D4F3FE;}
	.st14{fill:#D1ECC2;}
</style>
<g>
	<g>
		<circle class="st0" cx="88.6" cy="89.9" r="81.9"/>
	</g>
	<g>
		<g>
			<path class="st1" d="M19,119c3.6,1.8,7.5,3.5,11.6,5.1h-1.5C25,124.2,21.3,122.1,19,119z"/>
		</g>
		<g>
			<polygon class="st1" points="19,119 19,119 19,119 			"/>
		</g>
		<g>
			<g>
				<path class="st1" d="M169.7,48.2v73.5c0,6.9-5.6,12.6-12.6,12.6H30.6c-4.1-1.6-8-3.3-11.6-5.1c0,0,0,0,0,0
					c136.8-4.3,145.8-86.6,146.1-90.5c0-0.1,0-0.1,0-0.1h0c0.8,0.6,1.5,1.4,2.1,2.2c0.1,0.1,0.2,0.2,0.2,0.3
					c1.3,1.8,2.1,4.1,2.2,6.5C169.7,47.6,169.7,47.9,169.7,48.2z"/>
			</g>
			<g>
				<path class="st1" d="M165.1,38.4L165.1,38.4c0,0-6,86.3-146.1,90.6c-1.5-2.1-2.5-4.7-2.5-7.5V48.2c0-7,5.6-12.6,12.6-12.6h128
					C160.2,35.6,162.9,36.6,165.1,38.4z"/>
			</g>
			<g>
				<rect x="16.5" y="54.8" class="st5" width="153.2" height="20.6"/>
			</g>
			<g>
				<path class="st1" d="M30.6,134.2c-6.1,0-9.6-2.4-11.6-5.1C22.6,130.9,26.5,132.6,30.6,134.2z"/>
			</g>
			<g class="st6">
				<g>
					<path class="st5" d="M30.6,134.2c-6.1,0-9.6-2.4-11.6-5.1C22.6,130.9,26.5,132.6,30.6,134.2z"/>
				</g>
			</g>
			<g class="st6">
				<g>
					<path class="st5" d="M169.7,48.2v73.5c0,6.9-5.6,12.6-12.6,12.6H30.6c-4.1-1.6-8-3.3-11.6-5.1c0,0,0,0,0,0
						c-1.7-2.4-2.3-5-2.4-6.5c140.2-4.4,142.3-86.9,142.3-86.9s3.3,0.6,6.2,2.9c0.7,0.6,1.4,1.2,2.1,2c0.1,0.1,0.2,0.2,0.2,0.3
						c1.2,1.6,2.1,3.7,2.2,6.5C169.7,47.6,169.7,47.9,169.7,48.2z"/>
				</g>
			</g>
			<g class="st7">
				<g>
					<path class="st5" d="M52.4,110.6H29c-2.9,0-5.3-2.4-5.3-5.3V90.8c0-2.9,2.4-5.3,5.3-5.3h23.4c2.9,0,5.3,2.4,5.3,5.3v14.4
						C57.7,108.2,55.3,110.6,52.4,110.6z"/>
				</g>
			</g>
			<g>
				<path class="st8" d="M51.3,109.8H30.1c-2.9,0-5.3-2.4-5.3-5.3V91.6c0-2.9,2.4-5.3,5.3-5.3h21.2c2.9,0,5.3,2.4,5.3,5.3v12.8
					C56.6,107.4,54.3,109.8,51.3,109.8z"/>
			</g>
			<g>
				<g class="st6">
					<g>
						<path class="st5" d="M147,95.6H96.8c-1.5,0-2.7-1.2-2.7-2.7v-0.3c0-1.5,1.2-2.7,2.7-2.7H147c1.5,0,2.7,1.2,2.7,2.7v0.3
							C149.7,94.4,148.5,95.6,147,95.6z"/>
					</g>
				</g>
				<g class="st6">
					<g>
						<path class="st5" d="M131.4,108.3H97.6c-1.5,0-2.7-1.2-2.7-2.7v-0.3c0-1.5,1.2-2.7,2.7-2.7h33.8c1.5,0,2.7,1.2,2.7,2.7v0.3
							C134.1,107.1,132.9,108.3,131.4,108.3z"/>
					</g>
				</g>
			</g>
			<g>
				<g>
					<rect x="24.8" y="94.4" class="st9" width="9.3" height="1"/>
				</g>
				<g>
					<rect x="24.8" y="100.9" class="st9" width="9.3" height="1"/>
				</g>
				<g>
					<rect x="33.6" y="92" class="st9" width="1" height="13.5"/>
				</g>
			</g>
			<g>
				<g>
					<rect x="46.9" y="94.4" class="st9" width="9.3" height="1"/>
				</g>
				<g>
					<rect x="46.9" y="100.9" class="st9" width="9.3" height="1"/>
				</g>
				<g>
					<rect x="46.4" y="92" class="st9" width="1" height="13.5"/>
				</g>
			</g>
		</g>
		<g>
			<g>
				<circle class="st10" cx="160.7" cy="124.2" r="20.1"/>
			</g>
			<g>
				<g>
					<g>
						<path class="st11" d="M158.7,132.2c-0.7,0-1.3-0.3-1.8-0.8l-6-6.2c-1-1-0.9-2.5,0.1-3.5c1-1,2.5-0.9,3.5,0.1l4.2,4.3l8.3-9.3
							c0.9-1,2.5-1.1,3.5-0.2c1,0.9,1.1,2.5,0.2,3.5l-10,11.2C160,131.9,159.4,132.2,158.7,132.2
							C158.7,132.2,158.7,132.2,158.7,132.2z"/>
					</g>
				</g>
			</g>
		</g>
	</g>
</g>
</svg>
