<?xml version="1.0" encoding="utf-8"?>
<!-- Generator: Adobe Illustrator 22.0.1, SVG Export Plug-In . SVG Version: 6.00 Build 0)  -->
<svg version="1.1" id="Layer_1" xmlns="http://www.w3.org/2000/svg" xmlns:xlink="http://www.w3.org/1999/xlink" x="0px" y="0px"
	 width="180px" height="180px" viewBox="0 0 180 180" style="enable-background:new 0 0 180 180;" xml:space="preserve">
<style type="text/css">
	.st0{fill:#F5F8FF;}
	.st1{fill:#CCCCCC;}
	.st2{fill:#C1C1C1;}
	.st3{fill:#353537;}
	.st4{fill:#262628;}
	.st5{fill:#555555;}
	.st6{opacity:0.1;}
	.st7{opacity:0.2;}
	.st8{fill:#FFBD1A;}
	.st9{fill:#DB9D14;}
	.st10{fill:#001CEA;}
	.st11{fill:#FFFFFF;}
	.st12{fill:#474746;}
	.st13{fill:#D4F3FE;}
	.st14{fill:#D1ECC2;}
</style>
<g>
	<g>
		<g>
			<circle class="st0" cx="88.8" cy="89.9" r="81.9"/>
		</g>
	</g>
	<g>
		<g>
			<g>
				<polyline class="st12" points="40.1,106.3 139.9,106.3 136.9,97.9 50.5,92.6 				"/>
			</g>
		</g>
		<g>
			<g>
				<polygon class="st5" points="118.4,115.5 91,118.2 63,115.5 50.5,142.3 68.5,137.6 78.6,150.7 90.7,120.9 103,150.7 113,137.6 
					131,142.2 				"/>
			</g>
		</g>
		<g>
			<path class="st8" d="M138.5,86.5l0.1-0.1c1-0.9,1-2.4,0-3.3l-0.1-0.1c-0.9-0.8-1-2.2-0.2-3.1l0.1-0.1c0.9-1,0.6-2.6-0.5-3.3
				l-0.1-0.1c-1-0.7-1.3-2-0.6-3.1l0.1-0.1c0.7-1.1,0.3-2.6-0.9-3.2l-0.1-0.1c-1.1-0.5-1.5-1.8-1-2.9l0.1-0.1
				c0.6-1.2-0.1-2.6-1.3-3.1l-0.1,0c-1.1-0.4-1.8-1.6-1.4-2.8l0-0.1c0.4-1.3-0.4-2.6-1.7-2.8l-0.1,0c-1.2-0.2-2-1.4-1.8-2.5l0-0.1
				c0.2-1.3-0.8-2.5-2.1-2.6l-0.1,0c-1.2-0.1-2.2-1.1-2.1-2.3l0-0.1c0-1.3-1.1-2.4-2.4-2.3l-0.1,0c-1.2,0.1-2.3-0.8-2.4-2l0-0.1
				c-0.2-1.3-1.4-2.2-2.7-1.9l-0.1,0c-1.2,0.3-2.4-0.5-2.7-1.6l0-0.1c-0.3-1.3-1.7-2-3-1.5l-0.1,0.1c-1.1,0.4-2.4-0.1-2.9-1.2
				l-0.1-0.1c-0.5-1.2-2-1.8-3.1-1.1l-0.1,0.1c-1.1,0.6-2.4,0.2-3-0.8l-0.1-0.1c-0.7-1.1-2.2-1.5-3.3-0.7L98,36.7
				c-1,0.7-2.3,0.5-3.1-0.4l-0.1-0.1c-0.8-1-2.4-1.1-3.3-0.2L91.4,36c-0.9,0.8-2.3,0.8-3.1,0l-0.1-0.1c-1-0.9-2.5-0.8-3.3,0.2
				l-0.1,0.1c-0.7,1-2.1,1.1-3.1,0.4l-0.1-0.1c-1.1-0.8-2.6-0.5-3.3,0.7l-0.1,0.1c-0.6,1-1.9,1.4-3,0.8l-0.1-0.1
				c-1.2-0.6-2.6-0.1-3.1,1.1l-0.1,0.1c-0.5,1.1-1.7,1.7-2.9,1.2l-0.1,0c-1.2-0.5-2.6,0.2-3,1.5l0,0.1c-0.3,1.2-1.5,1.9-2.7,1.6
				l-0.1,0c-1.3-0.3-2.6,0.6-2.7,1.9l0,0.1c-0.1,1.2-1.2,2.1-2.4,2l-0.1,0c-1.3-0.1-2.5,0.9-2.4,2.3l0,0.1c0,1.2-0.9,2.2-2.1,2.3
				l-0.1,0c-1.3,0.1-2.3,1.3-2.1,2.6l0,0.1c0.2,1.2-0.6,2.3-1.8,2.5l-0.1,0c-1.3,0.2-2.1,1.6-1.7,2.8l0,0.1c0.3,1.2-0.3,2.4-1.4,2.8
				l-0.1,0c-1.3,0.4-1.9,1.8-1.3,3.1l0.1,0.1c0.5,1.1,0,2.4-1,2.9l-0.1,0.1c-1.2,0.6-1.6,2.1-0.9,3.2l0.1,0.1c0.6,1,0.4,2.4-0.6,3.1
				l-0.1,0.1c-1.1,0.8-1.3,2.3-0.5,3.3l0.1,0.1c0.8,0.9,0.7,2.3-0.2,3.1L41,83c-1,0.9-1,2.4,0,3.3l0.1,0.1c0.9,0.8,1,2.2,0.2,3.1
				l-0.1,0.1c-0.9,1-0.6,2.6,0.5,3.3l0.1,0.1c1,0.7,1.3,2,0.6,3.1l-0.1,0.1c-0.7,1.1-0.3,2.6,0.9,3.2l0.1,0.1c1.1,0.5,1.5,1.8,1,2.9
				l-0.1,0.1c-0.6,1.2,0.1,2.6,1.3,3.1l0.1,0c1.1,0.4,1.8,1.6,1.4,2.8l0,0.1c-0.4,1.3,0.4,2.6,1.7,2.8l0.1,0c1.2,0.2,2,1.4,1.8,2.5
				l0,0.1c-0.2,1.3,0.8,2.5,2.1,2.6l0.1,0c1.2,0.1,2.2,1.1,2.1,2.3l0,0.1c0,1.3,1.1,2.4,2.4,2.3l0.1,0c1.2-0.1,2.3,0.8,2.4,2l0,0.1
				c0.2,1.3,1.4,2.2,2.7,1.9l0.1,0c1.2-0.3,2.4,0.5,2.7,1.6l0,0.1c0.3,1.3,1.7,2,3,1.5l0.1-0.1c1.1-0.4,2.4,0.1,2.9,1.2l0.1,0.1
				c0.5,1.2,2,1.8,3.1,1.1l0.1-0.1c1.1-0.6,2.4-0.2,3,0.8l0.1,0.1c0.7,1.1,2.2,1.5,3.3,0.7l0.1-0.1c1-0.7,2.3-0.5,3.1,0.4l0.1,0.1
				c0.8,1,2.4,1.1,3.3,0.2l0.1-0.1c0.9-0.8,2.3-0.8,3.1,0l0.1,0.1c1,0.9,2.5,0.8,3.3-0.2l0.1-0.1c0.7-1,2.1-1.1,3.1-0.4l0.1,0.1
				c1.1,0.8,2.6,0.5,3.3-0.7l0.1-0.1c0.6-1,1.9-1.4,3-0.8l0.1,0.1c1.2,0.6,2.6,0.1,3.1-1.1l0.1-0.1c0.5-1.1,1.7-1.7,2.9-1.2l0.1,0
				c1.2,0.5,2.6-0.2,3-1.5l0-0.1c0.3-1.2,1.5-1.9,2.7-1.6l0.1,0c1.3,0.3,2.6-0.6,2.7-1.9l0-0.1c0.1-1.2,1.2-2.1,2.4-2l0.1,0
				c1.3,0.1,2.5-0.9,2.4-2.3l0-0.1c0-1.2,0.9-2.2,2.1-2.3l0.1,0c1.3-0.1,2.3-1.3,2.1-2.6l0-0.1c-0.2-1.2,0.6-2.3,1.8-2.5l0.1,0
				c1.3-0.2,2.1-1.6,1.7-2.8l0-0.1c-0.3-1.2,0.3-2.4,1.4-2.8l0.1,0c1.3-0.4,1.9-1.8,1.3-3.1l-0.1-0.1c-0.5-1.1,0-2.4,1-2.9l0.1-0.1
				c1.2-0.6,1.6-2.1,0.9-3.2l-0.1-0.1c-0.6-1-0.4-2.4,0.6-3.1l0.1-0.1c1.1-0.8,1.3-2.3,0.5-3.3l-0.1-0.1
				C137.5,88.7,137.6,87.3,138.5,86.5z"/>
		</g>
		<g>
			<path class="st8" d="M124.8,51.8c0,15.4-5.5,57.8-65.2,70.3c-0.4-0.5-1.1-0.7-1.8-0.7l-0.1,0c-1.3,0.1-2.5-0.9-2.4-2.3v-0.1
				c0-1.2-0.9-2.2-2.1-2.3l-0.1,0c-1.3-0.1-2.3-1.3-2.1-2.6l0-0.1c0.2-1.2-0.6-2.3-1.8-2.6l-0.1,0c-1.3-0.2-2.1-1.6-1.7-2.8l0-0.1
				c0.3-1.2-0.3-2.4-1.4-2.8l-0.1-0.1c-1.3-0.4-1.9-1.8-1.3-3.1l0.1-0.1c0.5-1.1,0-2.4-1-2.9l-0.1-0.1c-1.2-0.6-1.6-2.1-0.9-3.2
				l0.1-0.1c0.6-1,0.4-2.4-0.6-3.1L41.7,93c-1.1-0.7-1.3-2.3-0.4-3.3l0.1-0.1c0.8-0.9,0.7-2.3-0.2-3.1l-0.1-0.1c-1-0.9-1-2.4,0-3.3
				l0.1-0.1c0.9-0.8,1-2.2,0.2-3.1l-0.1-0.1c-0.9-1-0.6-2.6,0.4-3.3l0.1-0.1c1-0.7,1.3-2,0.6-3.1l-0.1-0.1c-0.7-1.1-0.3-2.6,0.9-3.2
				l0.1-0.1c1.1-0.5,1.5-1.8,1-2.9l-0.1-0.1c-0.6-1.2,0.1-2.6,1.3-3.1l0.1,0c1.1-0.4,1.8-1.6,1.4-2.8l0-0.1
				c-0.4-1.3,0.4-2.6,1.7-2.8l0.1,0c1.2-0.2,2-1.3,1.8-2.5l0-0.1c-0.2-1.3,0.8-2.5,2.1-2.6l0.1,0c1.2-0.1,2.2-1.1,2.1-2.3v-0.1
				c0-1.3,1.1-2.4,2.4-2.3l0.1,0c1.2,0.1,2.3-0.8,2.4-2l0-0.1c0.2-1.3,1.4-2.2,2.7-1.9l0.1,0c1.2,0.3,2.4-0.4,2.7-1.6l0-0.1
				c0.3-1.3,1.7-2,3-1.5l0.1,0.1c1.1,0.4,2.4-0.1,2.9-1.2l0.1-0.1c0.5-1.2,2-1.7,3.1-1.1l0.1,0.1c1.1,0.6,2.4,0.2,3-0.8l0.1-0.1
				c0.7-1.1,2.2-1.5,3.3-0.7l0.1,0.1c1,0.7,2.3,0.5,3.1-0.4l0.1-0.1c0.8-1.1,2.4-1.2,3.3-0.2l0.1,0.1c0.9,0.8,2.3,0.8,3.1,0l0.1-0.1
				c1-0.9,2.5-0.8,3.3,0.2l0.1,0.1c0.7,0.9,2.1,1.1,3.1,0.4l0.1-0.1c1.1-0.8,2.6-0.5,3.3,0.7l0.1,0.1c0.6,1,1.9,1.4,3,0.8l0.1-0.1
				c1.2-0.6,2.6-0.1,3.1,1.1l0.1,0.1c0.5,1.1,1.7,1.7,2.9,1.2l0.1-0.1c1.3-0.5,2.6,0.3,3,1.5l0,0.1c0.3,1.2,1.5,1.9,2.7,1.6l0.1,0
				c1.3-0.3,2.6,0.6,2.7,1.9l0,0.1c0.1,1.2,1.2,2.1,2.4,2l0.1,0c1.3-0.1,2.5,0.9,2.4,2.3v0.1C124.3,50.9,124.5,51.4,124.8,51.8z"/>
		</g>
		<g>
			<g>
				<path class="st1" d="M64.9,122.2h49.9c-7.1,4.8-15.7,7.5-24.9,7.5C80.6,129.8,72,127,64.9,122.2z"/>
			</g>
		</g>
		<g>
			<g>
				<path class="st8" d="M134.9,84.7c0,8.8-2.6,17.1-7,24.1H51.7c-4.4-7-7-15.2-7-24.1c0-24.9,20.2-45.1,45.1-45.1
					S134.9,59.8,134.9,84.7z"/>
			</g>
		</g>
		<g>
			<g>
				<path class="st8" d="M110.6,44.6c4.6,7.1,7.3,15.5,7.3,24.5c0,24.9-20.2,45.1-45.1,45.1c-7.4,0-14.4-1.8-20.6-5
					c8,12.4,22,20.5,37.8,20.5c24.9,0,45.1-20.2,45.1-45.1C135.1,67.2,125.2,52.1,110.6,44.6z"/>
			</g>
		</g>
		<g class="st6">
			<path class="st5" d="M138.4,89.7c0.9,1,0.7,2.6-0.4,3.3l-0.1,0.1c-1,0.7-1.3,2-0.6,3.1l0.1,0.1c0.7,1.1,0.3,2.6-0.9,3.2l-0.1,0.1
				c-1.1,0.5-1.6,1.8-1.1,2.9l0.1,0.1c0.6,1.2-0.1,2.6-1.3,3.1l-0.1,0c-1.1,0.4-1.8,1.6-1.4,2.8l0,0.1c0.4,1.3-0.4,2.6-1.7,2.8
				l-0.1,0c-1.2,0.2-2,1.4-1.8,2.6l0,0.1c0.2,1.3-0.8,2.5-2.1,2.6l-0.1,0c-1.2,0.1-2.2,1.1-2.1,2.3l0,0.1c0,1.3-1.1,2.4-2.4,2.3
				l-0.1,0c-1.2-0.1-2.3,0.8-2.4,2l0,0.1c-0.2,1.3-1.4,2.2-2.7,1.9l-0.1,0c-1.2-0.3-2.4,0.5-2.7,1.6l0,0.1c-0.3,1.3-1.7,2-3,1.5
				l-0.1-0.1c-1.1-0.4-2.4,0.1-2.9,1.2l-0.1,0.1c-0.5,1.2-2,1.8-3.1,1.1l-0.1-0.1c-1.1-0.6-2.4-0.2-3,0.8l-0.1,0.1
				c-0.7,1.1-2.2,1.5-3.3,0.7l-0.1-0.1c-1-0.7-2.3-0.5-3.1,0.4l-0.1,0.1c-0.8,1-2.4,1.2-3.3,0.2l-0.1-0.1c-0.9-0.8-2.3-0.8-3.1,0
				l-0.1,0.1c-1,0.9-2.5,0.8-3.3-0.2l-0.1-0.1c-0.7-0.9-2.1-1.1-3.1-0.4l-0.1,0.1c-1.1,0.8-2.6,0.5-3.3-0.7l-0.1-0.1
				c-0.6-1.1-1.9-1.4-3-0.8l-0.1,0.1c-1.2,0.6-2.6,0.1-3.1-1.1l-0.1-0.1c-0.5-1.1-1.7-1.7-2.9-1.2l-0.1,0c-1.2,0.5-2.6-0.2-3-1.5
				l0-0.1c-0.3-1.2-1.5-1.9-2.7-1.6l-0.1,0c-1.3,0.3-2.6-0.6-2.7-1.9l0-0.1c-0.1-0.5-0.3-1-0.6-1.3c59.6-12.6,65.2-54.9,65.2-70.3
				c0.4,0.5,1,0.8,1.6,0.8l0.1,0c1.3,0.1,2.3,1.3,2.1,2.6l0,0.1c-0.2,1.2,0.6,2.3,1.8,2.6l0.1,0c1.3,0.2,2.1,1.6,1.7,2.8l0,0.1
				c-0.3,1.2,0.3,2.4,1.4,2.8l0.1,0c1.3,0.4,1.9,1.8,1.3,3.1l-0.1,0.1c-0.5,1.1,0,2.4,1.1,2.9l0.1,0.1c1.2,0.6,1.6,2.1,0.9,3.2
				l-0.1,0.1c-0.7,1-0.4,2.4,0.6,3.1l0.1,0.1c1.1,0.7,1.3,2.3,0.4,3.3l-0.1,0.1c-0.8,0.9-0.7,2.3,0.2,3.1l0.1,0.1c1,0.9,1,2.4,0,3.3
				l-0.1,0.1c-0.9,0.8-1,2.2-0.2,3.1L138.4,89.7z"/>
		</g>
		<g>
			<g>
				<path class="st5" d="M71.2,57.7c2.4,0,2.9-1.2,3.4-2.5h2.1V75h-3.1v-15h-2.4V57.7z"/>
			</g>
			<g>
				<path class="st5" d="M80.1,60c0-3.2,1.7-5,4.7-5s4.7,1.8,4.7,5v10.3c0,3.2-1.7,5-4.7,5s-4.7-1.8-4.7-5V60z M83.2,70.5
					c0,1.4,0.6,1.9,1.6,1.9c1,0,1.6-0.5,1.6-1.9V59.8c0-1.4-0.6-1.9-1.6-1.9c-1,0-1.6,0.5-1.6,1.9V70.5z"/>
			</g>
			<g>
				<path class="st5" d="M91.3,60c0-3.2,1.7-5,4.7-5s4.7,1.8,4.7,5v10.3c0,3.2-1.7,5-4.7,5s-4.7-1.8-4.7-5V60z M94.4,70.5
					c0,1.4,0.6,1.9,1.6,1.9c1,0,1.6-0.5,1.6-1.9V59.8c0-1.4-0.6-1.9-1.6-1.9c-1,0-1.6,0.5-1.6,1.9V70.5z"/>
			</g>
			<g>
				<path class="st5" d="M102.5,58.3c0-2,1-3.2,3-3.2c1.9,0,3,1.1,3,3.2v6.5c0,2-1,3.2-3,3.2c-1.9,0-3-1.1-3-3.2V58.3z M104.5,64.9
					c0,0.9,0.4,1.2,1,1.2c0.6,0,1-0.4,1-1.2v-6.8c0-0.9-0.4-1.2-1-1.2c-0.6,0-1,0.4-1,1.2V64.9z M113.3,55.3h1.8L107.4,75h-1.8
					L113.3,55.3z M112.3,65.5c0-2,1-3.2,3-3.2c1.9,0,3,1.1,3,3.2V72c0,2-1,3.2-3,3.2c-1.9,0-3-1.1-3-3.2V65.5z M114.3,72.1
					c0,0.9,0.4,1.2,1,1.2c0.6,0,1-0.4,1-1.2v-6.8c0-0.9-0.4-1.2-1-1.2c-0.6,0-1,0.4-1,1.2V72.1z"/>
			</g>
		</g>
		<g>
			<g>
				<g>
					<g>
						<path class="st5" d="M139,106.3c-32.7-5.5-66-5.5-98.7,0c-0.8,0.1-1.5-0.4-1.7-1.2c-1-5.9-2-11.7-3.1-17.6
							c-0.1-0.8,0.4-1.5,1.2-1.7c35-5.9,70.8-5.9,105.8,0c0.8,0.1,1.3,0.9,1.2,1.7c-1,5.9-2,11.7-3.1,17.6
							C140.5,105.9,139.8,106.4,139,106.3z"/>
					</g>
				</g>
			</g>
			<g>
				<g>
					<g>
						<path class="st11" d="M62.4,95C62.4,95,62.4,95,62.4,95c0.2-2.9,0.4-5.7,0.6-8.5c0.9-0.1,1.8-0.2,2.8-0.2
							c0.3,4,0.6,7.9,0.9,11.9c-0.6,0-1.2,0.1-1.8,0.1c-0.2-2.8-0.5-5.7-0.7-8.5c0,0,0,0,0,0c-0.2,2.9-0.4,5.8-0.6,8.6
							c-1,0.1-0.8,0.1-1.8,0.2c-0.7-2.8-1.5-5.5-2.2-8.3c0,0,0,0,0,0c0.3,2.8,0.5,5.6,0.8,8.4c-0.6,0.1-1.1,0.1-1.7,0.2
							c-0.4-4-0.8-7.9-1.2-11.9c0.9-0.1,1.8-0.2,2.8-0.3C61,89.5,61.7,92.2,62.4,95z"/>
					</g>
				</g>
				<g>
					<g>
						<path class="st11" d="M67.3,89.4c-0.3-2.1,0.7-3.4,2.8-3.5c2.1-0.1,3.2,1,3.2,3.2c0.1,1.8,0.2,3.7,0.3,5.5
							c0.2,2.1-0.7,3.4-2.7,3.5c-2,0.1-3.1-1-3.1-3.1C67.6,93,67.4,91.2,67.3,89.4z M69.6,95.1c0.1,0.9,0.5,1.2,1.1,1.1
							c0.6,0,1-0.4,0.9-1.3c-0.1-2.1-0.3-4.1-0.4-6.2c0-1-0.4-1.4-1.1-1.3c-0.7,0-1.1,0.5-0.9,1.5C69.4,91,69.5,93.1,69.6,95.1z"/>
					</g>
				</g>
				<g>
					<g>
						<path class="st11" d="M76.3,88.9C76.3,88.9,76.3,88.9,76.3,88.9c0.1,2.9,0.2,5.8,0.3,8.6c-0.6,0-1.1,0.1-1.7,0.1
							c-0.2-4-0.4-7.9-0.6-11.9c0.8,0,1.7-0.1,2.5-0.1c0.8,2.4,1.5,4.7,2.3,7.1c0,0,0,0,0,0c-0.1-2.4-0.2-4.8-0.2-7.1
							c0.6,0,1.2,0,1.8-0.1c0.1,4,0.2,7.9,0.3,11.9c-1.1,0.2-0.8,0.1-1.9,0.3C78.2,94.8,77.2,91.8,76.3,88.9z"/>
					</g>
				</g>
				<g>
					<g>
						<path class="st11" d="M84.1,90.4c0.9,0,1.8,0,2.7,0c0,0.6,0,1.1,0,1.7c-0.9,0-1.8,0-2.7,0c0,1.2,0,2.3,0.1,3.5
							c1.1,0,2.2,0,3.3,0c0,0.6,0,1.1,0,1.7c-1.7,0-3.5,0-5.2,0.1c-0.1-4-0.2-7.9-0.3-11.9c1.8,0,3.6-0.1,5.4-0.1c0,0.6,0,1.1,0,1.7
							c-1.1,0-2.3,0-3.4,0C84.1,88.2,84.1,89.3,84.1,90.4z"/>
					</g>
				</g>
				<g>
					<g>
						<path class="st11" d="M90.5,93.3c-0.8-2.7-1.6-5.3-2.5-8c0.7,0,1.4,0,2.1,0c0.5,1.8,1,3.6,1.5,5.4c0,0,0,0,0,0
							c0.5-1.8,1-3.6,1.5-5.4c0.6,0,1.3,0,1.9,0c-0.9,2.6-1.7,5.3-2.6,7.9c0,1.3,0,2.6,0,3.9c-0.6,0-1.3,0-1.9,0
							C90.5,95.9,90.5,94.6,90.5,93.3z"/>
					</g>
				</g>
				<g>
					<g>
						<path class="st11" d="M104.4,88.4c0,0.1,0,0.3,0,0.4c-0.1,1.2-0.5,2-1.4,2.3c0,0,0,0,0,0c1,0.4,1.4,1.3,1.3,2.6
							c0,0.3,0,0.6,0,1c-0.1,1.8-1.1,2.8-3,2.7c-1,0-2-0.1-3-0.1c0.1-4,0.2-7.9,0.3-11.9c1,0,2,0.1,3,0.1
							C103.7,85.6,104.5,86.6,104.4,88.4z M100.6,87.2c0,1-0.1,2.1-0.1,3.1c0.3,0,0.5,0,0.8,0c0.7,0,1.2-0.3,1.2-1.2
							c0-0.2,0-0.4,0-0.7c0-0.9-0.3-1.2-1-1.3C101.2,87.2,100.9,87.2,100.6,87.2z M100.4,92.1c0,1.2-0.1,2.4-0.1,3.7
							c0.4,0,0.7,0,1.1,0c0.6,0,1-0.2,1-1.1c0-0.3,0-0.7,0-1c0-1.1-0.3-1.5-1.2-1.5C101,92.1,100.7,92.1,100.4,92.1z"/>
					</g>
				</g>
				<g>
					<g>
						<path class="st11" d="M111.5,98c-0.6,0-1.3-0.1-1.9-0.1c-0.1-0.7-0.1-1.5-0.2-2.2c-0.8-0.1-1.6-0.1-2.4-0.1
							c-0.2,0.7-0.3,1.4-0.5,2.1c-0.6,0-1.2-0.1-1.8-0.1c0.8-3.9,1.7-7.9,2.6-11.8c1,0.1,1.9,0.1,2.9,0.2
							C110.8,90,111.1,94,111.5,98z M107.4,94c0.6,0,1.2,0.1,1.9,0.1c-0.2-2-0.4-4-0.5-6.1c0,0,0,0,0,0C108.2,90,107.8,92,107.4,94z
							"/>
					</g>
				</g>
				<g>
					<g>
						<path class="st11" d="M118.3,94.7c0,0.3-0.1,0.7-0.1,1c-0.2,1.9-1.3,2.9-3.1,2.7c-2-0.2-2.9-1.4-2.6-3.5
							c0.1-1.8,0.3-3.7,0.4-5.5c0-2.1,1.1-3.3,3.2-3.1c1.9,0.2,2.9,1.4,2.7,3.2l-0.1,0.5c-1,0.2-0.9,0.2-1.9,0.4l-0.1-0.2
							c0.5-1.6,0.2-2.2-0.7-2.3c-0.7-0.1-1.1,0.3-1.1,1.4c-0.2,2-0.3,4.1-0.5,6.1c-0.1,0.9,0.3,1.2,0.9,1.3c0.8,0.1,1.3-0.5,1-2.3
							l0.4-0.4C117.5,94.4,117.4,94.4,118.3,94.7z"/>
					</g>
				</g>
				<g>
					<g>
						<path class="st11" d="M122.3,95.2c-0.5,0-0.4,0-1,0.1c-0.1,1.2-0.3,2.4-0.4,3.6c-0.6-0.1-1.3-0.1-1.9-0.2
							c0.4-4,0.8-7.9,1.2-11.9c0.7,0.1,1.3,0.1,2,0.2c-0.2,1.7-0.4,3.4-0.5,5.1c0,0,0,0,0,0c1-1.6,2-3.2,3.1-4.9
							c0.7,0.1,1.3,0.2,2,0.2c-1.1,1.6-2.2,3.3-3.3,5c0.7,2.3,1.3,4.6,1.9,6.9c-0.7-0.1-1.3-0.2-2-0.2
							C123,97.8,122.7,96.5,122.3,95.2z"/>
					</g>
				</g>
			</g>
		</g>
		<g>
			<g>
				<path class="st5" d="M128.2,108.8c-3.4,5.4-7.9,10-13.2,13.5h-50c-5.3-3.5-9.8-8.1-13.2-13.5H128.2z"/>
			</g>
		</g>
		<g>
			<g>
				<path class="st11" d="M70.3,115h1.7v2.4c0,1.2-0.6,1.9-1.8,1.9c-1.2,0-1.8-0.7-1.8-1.9v-4c0-1.2,0.6-1.9,1.8-1.9
					c1.2,0,1.8,0.7,1.8,1.9v0.7h-1.1v-0.8c0-0.5-0.2-0.8-0.6-0.8c-0.4,0-0.6,0.2-0.6,0.8v4.1c0,0.5,0.2,0.7,0.6,0.7
					c0.4,0,0.6-0.2,0.6-0.7V116h-0.5V115z"/>
			</g>
			<g>
				<path class="st11" d="M74.9,111.6v5.9c0,0.5,0.2,0.7,0.6,0.7c0.4,0,0.6-0.2,0.6-0.7v-5.9h1.1v5.8c0,1.2-0.6,1.9-1.8,1.9
					s-1.8-0.7-1.8-1.9v-5.8H74.9z"/>
			</g>
			<g>
				<path class="st11" d="M83.1,119.2h-1.2l-0.2-1.4h-1.5l-0.2,1.4h-1.1l1.2-7.6h1.8L83.1,119.2z M80.4,116.8h1.2l-0.6-3.9h0
					L80.4,116.8z"/>
			</g>
			<g>
				<path class="st11" d="M87.2,119.2c-0.1-0.2-0.1-0.3-0.1-0.9v-1.2c0-0.7-0.2-1-0.8-1h-0.4v3.1h-1.2v-7.6h1.8
					c1.2,0,1.8,0.6,1.8,1.8v0.6c0,0.8-0.3,1.3-0.8,1.5v0c0.6,0.3,0.8,0.8,0.8,1.6v1.2c0,0.4,0,0.6,0.1,0.9H87.2z M85.9,112.7v2.3
					h0.5c0.4,0,0.7-0.2,0.7-0.8v-0.8c0-0.5-0.2-0.8-0.6-0.8H85.9z"/>
			</g>
			<g>
				<path class="st11" d="M94.1,119.2h-1.2l-0.2-1.4h-1.5l-0.2,1.4h-1.1l1.2-7.6h1.8L94.1,119.2z M91.3,116.8h1.2l-0.6-3.9h0
					L91.3,116.8z"/>
			</g>
			<g>
				<path class="st11" d="M96.8,113.7L96.8,113.7l0,5.5h-1.1v-7.6h1.5l1.2,4.6h0v-4.6h1.1v7.6h-1.2L96.8,113.7z"/>
			</g>
			<g>
				<path class="st11" d="M101.1,111.6h3.7v1.1h-1.3v6.5h-1.2v-6.5h-1.3V111.6z"/>
			</g>
			<g>
				<path class="st11" d="M107.6,114.8h1.6v1.1h-1.6v2.2h2.1v1.1h-3.3v-7.6h3.3v1.1h-2.1V114.8z"/>
			</g>
			<g>
				<path class="st11" d="M112.7,114.8h1.6v1.1h-1.6v2.2h2.1v1.1h-3.3v-7.6h3.3v1.1h-2.1V114.8z"/>
			</g>
		</g>
	</g>
</g>
</svg>
